<svg width="21" height="21" viewBox="0 0 21 21" fill="none" xmlns="http://www.w3.org/2000/svg">
<path d="M13.25 7.07292L8.78126 11.5521L7.06251 9.83333C6.96912 9.72429 6.85421 9.63573 6.72498 9.5732C6.59574 9.51068 6.45498 9.47554 6.31152 9.47C6.16806 9.46446 6.02501 9.48864 5.89134 9.54101C5.75766 9.59337 5.63626 9.67281 5.53475 9.77432C5.43323 9.87584 5.3538 9.99724 5.30143 10.1309C5.24906 10.2646 5.22488 10.4076 5.23042 10.5511C5.23597 10.6946 5.2711 10.8353 5.33363 10.9646C5.39615 11.0938 5.48471 11.2087 5.59376 11.3021L8.04167 13.7604C8.13901 13.857 8.25444 13.9333 8.38135 13.9852C8.50827 14.037 8.64417 14.0633 8.78126 14.0625C9.05453 14.0614 9.3164 13.9529 9.51042 13.7604L14.7188 8.55208C14.8164 8.45525 14.8939 8.34004 14.9468 8.2131C14.9997 8.08617 15.0269 7.95001 15.0269 7.8125C15.0269 7.67499 14.9997 7.53884 14.9468 7.4119C14.8939 7.28496 14.8164 7.16975 14.7188 7.07292C14.5236 6.87891 14.2596 6.77001 13.9844 6.77001C13.7092 6.77001 13.4452 6.87891 13.25 7.07292ZM10.4167 0C8.35645 0 6.3425 0.610927 4.62948 1.75553C2.91647 2.90012 1.58134 4.52698 0.792926 6.43038C0.00451338 8.33378 -0.201771 10.4282 0.200158 12.4489C0.602088 14.4695 1.59418 16.3256 3.05098 17.7824C4.50777 19.2392 6.36385 20.2313 8.38448 20.6332C10.4051 21.0351 12.4996 20.8288 14.403 20.0404C16.3064 19.252 17.9332 17.9169 19.0778 16.2039C20.2224 14.4908 20.8333 12.4769 20.8333 10.4167C20.8333 9.04873 20.5639 7.69419 20.0404 6.43038C19.5169 5.16657 18.7496 4.01825 17.7824 3.05097C16.8151 2.08369 15.6668 1.31641 14.403 0.792922C13.1392 0.269435 11.7846 0 10.4167 0ZM10.4167 18.75C8.7685 18.75 7.15733 18.2613 5.78692 17.3456C4.41651 16.4299 3.34841 15.1284 2.71768 13.6057C2.08695 12.083 1.92192 10.4074 2.24346 8.79092C2.56501 7.17441 3.35868 5.68955 4.52412 4.52411C5.68955 3.35867 7.17441 2.565 8.79092 2.24346C10.4074 1.92191 12.083 2.08694 13.6057 2.71767C15.1284 3.3484 16.4299 4.41651 17.3456 5.78692C18.2613 7.15733 18.75 8.76849 18.75 10.4167C18.75 12.6268 17.872 14.7464 16.3092 16.3092C14.7464 17.872 12.6268 18.75 10.4167 18.75Z" fill="#005AA5"/>
</svg>
