<svg width="19" height="19" viewBox="0 0 19 19" fill="none" xmlns="http://www.w3.org/2000/svg">
<path fill-rule="evenodd" clip-rule="evenodd" d="M8.81076 0.140678C8.66096 0.214467 8.33627 0.425599 8.0892 0.609857C7.27592 1.21646 7.05826 1.27665 6.08912 1.16302C5.19104 1.05775 4.94072 1.07915 4.60908 1.28947C4.38236 1.43326 4.19068 1.72361 3.9458 2.29431C3.66689 2.94435 3.57314 3.11681 3.39174 3.31361C3.19022 3.53224 3.04717 3.61611 2.37053 3.91244C1.70881 4.20224 1.43361 4.37986 1.28619 4.61236C1.07588 4.944 1.05447 5.19431 1.15975 6.0924C1.2735 7.06259 1.21213 7.28411 0.60584 8.09247C-0.202129 9.16966 -0.202012 9.52048 0.606582 10.5925C1.21045 11.3931 1.27361 11.6215 1.15975 12.5926C1.05447 13.4906 1.07588 13.741 1.28619 14.0726C1.43057 14.3002 1.721 14.4914 2.29822 14.7386C3.38338 15.2033 3.47631 15.2964 3.9458 16.3906C4.19068 16.9613 4.38236 17.2517 4.60908 17.3955C4.93994 17.6053 5.18783 17.627 6.064 17.5226C7.04521 17.4056 7.27158 17.4671 8.0892 18.0728C8.33627 18.2559 8.65943 18.467 8.80732 18.542C9.35057 18.8176 9.74029 18.7154 10.5892 18.0751C11.3909 17.4704 11.6298 17.4052 12.6144 17.5226C13.9703 17.6841 14.2404 17.539 14.7353 16.3835C15.0253 15.7063 15.1511 15.4901 15.3696 15.2936C15.5899 15.0956 15.7372 15.0148 16.3874 14.7359C16.9581 14.491 17.2484 14.2993 17.3922 14.0726C17.6021 13.7417 17.6237 13.4938 17.5193 12.6177C17.4019 11.6331 17.4671 11.3942 18.0718 10.5925C18.8804 9.52048 18.8805 9.16966 18.0726 8.09247C17.4654 7.28302 17.402 7.05091 17.5193 6.06728C17.6237 5.19111 17.6021 4.94322 17.3922 4.61236C17.246 4.38177 16.9607 4.19603 16.3446 3.93036C15.7658 3.68076 15.5594 3.56568 15.3478 3.37443C15.1522 3.19771 15.061 3.03997 14.7692 2.3738C14.4794 1.71208 14.3018 1.43689 14.0693 1.28947C13.7377 1.07915 13.4874 1.05775 12.5893 1.16302C11.6191 1.27677 11.3976 1.2154 10.5892 0.609115C9.73717 -0.0299475 9.35928 -0.129479 8.81076 0.140678ZM12.4837 6.2697C12.3978 6.2979 12.2835 6.34392 12.2298 6.37193C12.1761 6.3999 11.3106 7.2415 10.3065 8.24212L8.48088 10.0614L7.50896 9.09658C6.43537 8.0308 6.34264 7.96435 5.92123 7.95908C5.59811 7.95505 5.36201 8.05447 5.14588 8.28552C4.8285 8.62482 4.76811 9.0956 4.98971 9.50279C5.10924 9.7224 7.80752 12.4245 8.00932 12.5266C8.21252 12.6295 8.58393 12.647 8.8358 12.5655C9.03459 12.5011 9.17311 12.3707 11.3397 10.207C13.7622 7.78775 13.7603 7.78994 13.8166 7.37927C13.8707 6.98462 13.5936 6.49486 13.2228 6.32974C13.006 6.23318 12.6763 6.20642 12.4837 6.2697Z" fill="#2568EF"/>
</svg>
