<svg width="20" height="20" viewBox="0 0 20 20" fill="none" xmlns="http://www.w3.org/2000/svg">
<g clip-path="url(#clip0_8128_3210)">
<path d="M18.8 10.207C18.8 9.55703 18.7417 8.93203 18.6333 8.33203H10V11.882H14.9333C14.7167 13.0237 14.0667 13.9904 13.0917 14.6404V16.9487H16.0667C17.8 15.3487 18.8 12.9987 18.8 10.207Z" fill="#4285F4"/>
<path d="M10.0036 19.1667C12.4786 19.1667 14.5536 18.35 16.0703 16.95L13.0953 14.6417C12.2786 15.1917 11.237 15.525 10.0036 15.525C7.62031 15.525 5.59531 13.9167 4.87031 11.75H1.82031V14.1167C3.32865 17.1083 6.42031 19.1667 10.0036 19.1667Z" fill="#34A853"/>
<path d="M4.86927 11.7406C4.68594 11.1906 4.5776 10.6073 4.5776 9.99896C4.5776 9.39062 4.68594 8.80729 4.86927 8.25729V5.89062H1.81927C1.19427 7.12396 0.835938 8.51562 0.835938 9.99896C0.835938 11.4823 1.19427 12.874 1.81927 14.1073L4.19427 12.2573L4.86927 11.7406Z" fill="#FBBC05"/>
<path d="M10.0036 4.48203C11.3536 4.48203 12.5536 4.9487 13.512 5.8487L16.137 3.2237C14.5453 1.74036 12.4786 0.832031 10.0036 0.832031C6.42031 0.832031 3.32865 2.89036 1.82031 5.89036L4.87031 8.25703C5.59531 6.09036 7.62031 4.48203 10.0036 4.48203Z" fill="#EA4335"/>
</g>
<defs>
<clipPath id="clip0_8128_3210">
<rect width="20" height="20" fill="white"/>
</clipPath>
</defs>
</svg>
