<svg width="60" height="60" viewBox="0 0 60 60" fill="none" xmlns="http://www.w3.org/2000/svg">
<path fill-rule="evenodd" clip-rule="evenodd" d="M25.4072 0.198662C13.9458 2.12584 4.63035 10.285 1.07891 21.5078C-0.174058 25.4669 -0.367901 32.6791 0.666905 36.8217C3.08846 46.5136 10.1548 54.5416 19.3307 58.0247C35.3304 64.0986 53.0684 55.6832 58.6172 39.3862C59.6608 36.3207 59.8296 35.2827 59.9697 31.0582C60.165 25.1834 59.4471 21.7788 56.9452 16.7157C52.8008 8.32872 45.185 2.46829 35.8618 0.492456C33.5305 -0.00150366 27.5903 -0.16849 25.4072 0.198662ZM27.4341 1.66653C10.8528 3.1462 -1.22029 19.2795 2.13436 35.4747C4.1041 44.9838 10.753 52.8002 19.8602 56.3135C31.2217 60.6961 44.8238 57.0884 52.1861 47.7397C56.9802 41.6522 59.212 33.8026 58.2144 26.5389C56.8697 16.7467 51.2328 9.02652 42.0437 4.39215C38.1142 2.41042 31.9624 1.26252 27.4341 1.66653ZM19.076 5.39187C18.378 5.53268 17.7184 7.97705 17.4132 11.5549C17.2422 13.558 17.3897 14.184 18.9765 18.1902C20.4097 21.8086 20.7598 23.153 20.8991 25.576L21.069 28.5383L18.9975 32.5077C15.7645 38.702 15.3241 40.2628 15.3425 45.4686C15.3606 50.5703 15.9594 53.1445 17.1689 53.3207C17.9192 53.4298 17.9225 53.3925 17.4062 50.7403C16.3961 45.5522 17.5418 36.3819 19.1213 37.0097C23.8881 38.9033 32.1257 39.3483 37.1999 37.9862C38.72 37.5777 40.1841 37.187 40.4535 37.117C41.3313 36.8899 42.4318 40.3974 42.637 44.077C42.804 47.0636 42.5563 49.5083 41.74 52.9332C41.5834 53.5898 41.701 53.7626 42.305 53.7626C43.3 53.7626 44.1557 51.0282 44.4387 46.9431C44.7542 42.3913 43.97 39.4094 40.8191 33.18C37.2452 26.1146 37.2437 25.5108 40.7856 17.2819C42.6315 12.9933 42.6941 11.998 41.4091 7.40789C40.9179 5.65249 40.6032 5.10397 40.0876 5.10397C39.2673 5.10397 39.2496 5.55443 39.9638 8.29664C41.0612 12.5111 40.5195 14.6311 38.0847 15.6489C35.6827 16.6527 32.9652 15.9482 30.963 13.8024C30.4714 13.276 29.919 12.8451 29.7351 12.8451C29.5512 12.8451 28.7095 13.404 27.8645 14.0867C27.0198 14.7694 25.9662 15.5158 25.5236 15.7455C24.3646 16.3463 22.3175 16.259 20.8202 15.5449C18.8958 14.6271 18.5626 13.2469 19.331 9.37451C20.019 5.905 19.9748 5.21087 19.076 5.39187ZM28.9081 14.6886C28.2975 16.6129 24.5695 18.2355 22.0566 17.6708C21.174 17.4725 20.4075 17.3549 20.3526 17.4098C20.2976 17.4644 20.5844 18.1957 20.9897 19.0347C22.131 21.3976 22.9263 25.315 22.6864 27.393C22.57 28.3993 21.8167 30.5952 21.0122 32.2725L19.5495 35.3217L22.2018 36.1556C25.7551 37.2725 33.0197 37.3374 37.292 36.2901C38.8626 35.9049 40.148 35.5348 40.148 35.4677C40.148 35.4006 39.3682 33.8513 38.4152 32.0248C36.1404 27.6646 35.9528 25.4488 37.4943 21.1392C38.0744 19.5173 38.6721 17.9156 38.8221 17.5794C39.0705 17.0235 38.9688 17.0139 37.6867 17.471C36.9124 17.7475 35.9469 17.9794 35.5415 17.986C34.1588 18.0096 31.0434 16.2752 30.3454 15.0934C29.5589 13.7623 29.2313 13.6697 28.9081 14.6886ZM11.0349 28.6319C11.0349 28.7993 11.4495 29.3257 11.9562 29.8019C12.4629 30.2782 12.8778 30.7633 12.8782 30.8798C12.879 30.9967 11.4694 31.0383 9.74579 30.9731C6.78288 30.8603 6.61262 30.8953 6.61262 31.6182C6.61262 32.3318 6.82121 32.3823 9.76385 32.3823H12.9151L11.9768 33.6128C11.1089 34.7507 11.0636 35.3313 11.8416 35.3313C12.321 35.3313 15.4571 32.3451 15.4571 31.8884C15.4571 31.2204 12.401 28.3274 11.6953 28.3274C11.3319 28.3274 11.0349 28.4646 11.0349 28.6319ZM45.7193 30.0172C43.5616 31.9577 43.5878 32.2795 46.0621 34.2395C47.1739 35.1201 47.674 35.3232 47.9795 35.0176C48.2853 34.7117 48.1663 34.3622 47.5229 33.6773L46.6528 32.7509H49.8497C53.005 32.7509 53.0463 32.7391 53.0463 31.8386C53.0463 30.9277 53.0407 30.9266 49.9138 31.0737C48.191 31.1552 46.7814 31.1596 46.7814 31.0837C46.7814 31.0077 47.193 30.5016 47.6957 29.959C48.5433 29.0444 48.6351 28.3274 47.905 28.3274C47.7362 28.3274 46.7527 29.0879 45.7193 30.0172ZM28.7239 31.4132C28.7239 32.5224 29.3039 32.9718 29.9949 32.3978C30.7231 31.7933 30.4449 30.7427 29.5195 30.6055C28.8842 30.5115 28.7239 30.6745 28.7239 31.4132ZM36.3744 41.7521C35.2637 42.657 33.3614 44.5094 32.1471 45.8681L29.9396 48.3387L26.0882 44.4154C23.97 42.2575 22.0326 40.4921 21.7835 40.4921C21.5344 40.4921 21.2333 40.745 21.1147 41.0546C20.9709 41.4291 21.6896 42.3415 23.2701 43.7906C24.5747 44.986 26.3278 46.8531 27.1658 47.9402C28.6225 49.829 28.6948 50.0458 28.7991 52.8532C28.8978 55.5081 28.9789 55.7901 29.6452 55.7901C30.3004 55.7901 30.4043 55.4775 30.5823 52.9742C30.7688 50.3451 30.8897 50.0192 32.4021 48.0582C33.9775 46.0156 38.1617 41.9666 38.6972 41.9666C39.2234 41.9666 39.3568 40.9061 38.8803 40.5105C38.5089 40.202 37.9166 40.4954 36.3744 41.7521Z" fill="#F0D093"/>
</svg>
