<svg width="228" height="58" viewBox="0 0 228 58" fill="none" xmlns="http://www.w3.org/2000/svg">
<path fill-rule="evenodd" clip-rule="evenodd" d="M115.798 0L118.911 6.25935L125.805 7.23598L120.824 12.1192L122.024 19L115.798 15.7593L109.661 19L110.817 12.1192L105.836 7.23598L112.729 6.25935L115.798 0Z" fill="url(#paint0_linear_8094_3142)"/>
<path fill-rule="evenodd" clip-rule="evenodd" d="M144.799 7L146.924 11.5769L151.767 12.3846L148.283 15.9295L149.091 21L144.799 18.6218L140.466 21L141.273 15.9295L137.789 12.3846L142.633 11.5769L144.799 7Z" fill="url(#paint1_linear_8094_3142)"/>
<path fill-rule="evenodd" clip-rule="evenodd" d="M87.8641 7L89.9949 11.5769L94.8532 12.3846L91.3586 15.9295L92.2109 21L87.8641 18.6218L83.5172 21L84.3695 15.9295L80.875 12.3846L85.7333 11.5769L87.8641 7Z" fill="url(#paint2_linear_8094_3142)"/>
<path fill-rule="evenodd" clip-rule="evenodd" d="M166.742 17L168.271 19.9858L171.734 20.455L169.216 22.7583L169.8 26L166.742 24.4645L163.639 26L164.269 22.7583L161.75 20.455L165.213 19.9858L166.742 17Z" fill="url(#paint3_linear_8094_3142)"/>
<path fill-rule="evenodd" clip-rule="evenodd" d="M65.8759 17L67.4571 19.9858L70.8906 20.455L68.3607 22.7583L68.948 26L65.8759 24.4645L62.8037 26L63.3911 22.7583L60.9062 20.455L64.3398 19.9858L65.8759 17Z" fill="url(#paint4_linear_8094_3142)"/>
<path fill-rule="evenodd" clip-rule="evenodd" d="M16.5358 39.6679L4.69918 57.0258C4.25586 57.7343 3.1919 57.8672 2.43825 57.8672C2.30526 57.8672 2.26093 57.8672 2.12793 57.8672H1.9506C0.886638 57.8672 0 57.4686 0 56.3173C0 55.8303 0.221659 55.3875 0.487651 54.9447L13.7872 35.5941C13.9645 35.2841 14.1862 35.0185 14.4522 34.797C15.0728 34.2657 15.7378 34 16.5358 34C17.6884 34 18.5751 34.6199 19.24 35.5498L32.5396 54.9004C32.8056 55.2989 32.9829 55.786 32.9829 56.2731C32.9829 57.3801 32.052 57.7343 31.0767 57.8672H31.0323C30.9437 57.8672 30.8993 57.8672 30.855 57.8672H30.5003C29.7467 57.8672 28.7714 57.7343 28.2838 57.0258L16.5358 39.6679ZM45.4845 48.1697H41.539V56.0074C41.539 57.1587 40.9183 57.9114 39.7214 57.9114H38.5244C37.3275 57.9114 36.7068 57.203 36.7068 56.0074V35.9041C36.7068 34.7528 37.3275 34.0443 38.5244 34.0443H39.7214C40.9183 34.0443 41.539 34.7085 41.539 35.9041V43.9631H45.4845V40.7306C45.4845 34.9299 51.691 34.0886 56.2572 34.0886H62.109C64.2813 34.0886 67.1628 34.2214 69.1578 34.9742C71.729 35.9926 72.926 37.9852 72.926 40.7306V51.2694C72.926 57.0258 66.5865 57.8672 62.1533 57.8672H56.3015C52.9766 57.8672 48.3218 57.3801 46.3268 54.3247C45.7505 53.4391 45.4845 52.3764 45.4845 51.3137V48.1697ZM56.1685 53.6605H62.1533C63.7493 53.6605 68.0938 53.572 68.0938 51.1808V40.7749C68.0938 38.2952 63.7936 38.2066 62.1533 38.2066H56.2128C54.5726 38.2066 50.3167 38.3395 50.3167 40.7749V51.2251C50.2724 53.6162 54.5282 53.6605 56.1685 53.6605ZM112.869 42.1476L101.387 56.6273C100.633 57.5572 99.6581 58 98.4168 58C97.2642 58 96.2446 57.5572 95.4909 56.6273L83.7873 42.059V55.9631C83.7873 57.1144 83.1666 57.8672 81.9697 57.8672H80.7727C79.5758 57.8672 78.9551 57.1587 78.9551 55.9631V36.6125C78.9551 35.8598 79.3098 35.2399 79.8418 34.7528C80.3737 34.2657 81.0387 34.0886 81.7924 34.0886C82.812 34.0886 83.6986 34.5756 84.3193 35.3727L98.4612 52.5092L112.381 35.3284C113.046 34.4871 113.977 34.1328 115.086 34.1328C116.815 34.1328 117.746 35.107 117.746 36.8339V56.0074C117.746 57.1587 117.125 57.9114 115.928 57.9114H114.687C113.534 57.9114 112.913 57.203 112.913 56.0074V42.1476H112.869ZM128.563 48.1697V51.6236C128.563 53.6162 132.109 53.7048 133.439 53.7048H147.847C149 53.7048 149.664 54.4133 149.664 55.6089V56.0074C149.664 57.1587 149 57.9114 147.847 57.9114H133.217C132.641 57.9114 132.065 57.8672 131.533 57.7786C127.898 57.3801 123.775 56.0959 123.775 51.7565V40.3321C123.775 37.7638 125.371 36.1255 127.632 35.1513C129.538 34.3542 131.577 34.0443 133.616 34.0443H137.606C138.759 34.0443 139.424 34.7085 139.424 35.9041V36.3469C139.424 37.5424 138.759 38.2066 137.606 38.2066H133.439L132.286 38.2952C131.134 38.3838 128.518 38.6494 128.518 40.2878V43.9631H147.847C149.133 43.9631 149.798 44.6716 149.709 45.9557L149.664 46.3985C149.576 47.5055 148.955 48.1255 147.847 48.1255H128.563V48.1697ZM179.057 48.1697H159.861V56.0074C159.861 57.1587 159.24 57.9114 158.043 57.9114H156.802C155.649 57.9114 155.029 57.203 155.029 56.0074V35.9041C155.029 34.7528 155.649 34.0443 156.802 34.0443H158.043C159.196 34.0443 159.861 34.7085 159.861 35.9041V43.9631H179.057V35.9041C179.057 34.7528 179.677 34.0443 180.874 34.0443H182.027C183.224 34.0443 183.844 34.7085 183.844 35.9041V56.0074C183.844 57.1587 183.224 57.9114 182.027 57.9114H180.874C179.677 57.9114 179.057 57.203 179.057 56.0074V48.1697ZM227.644 35.9041V36.3469C227.644 37.5424 226.979 38.2066 225.738 38.2066H210.754C209.646 38.2066 205.7 38.2509 205.7 40.0221V51.4465C205.7 52.5978 206.853 53.1292 207.828 53.3948C208.892 53.6605 210.311 53.7048 211.374 53.7048H225.649C226.846 53.7048 227.511 54.369 227.511 55.6089V56.0074C227.511 57.203 226.846 57.9114 225.649 57.9114H211.33C210.178 57.9114 208.759 57.9557 207.606 57.7786C206.365 57.6458 205.124 57.2472 204.06 56.6273C202.065 55.5646 200.691 53.9262 200.691 51.5793V40.0664C200.691 38.3838 201.577 37.0554 202.863 36.0369C204.104 35.107 205.523 34.5314 207.074 34.2657C208.227 34.0886 209.513 34.0443 210.665 34.0443H225.738C226.935 34.0443 227.644 34.7085 227.644 35.9041ZM194.794 45.1144V45.5129C194.794 45.9114 194.794 46.2657 194.794 46.6642V47.0627C194.794 50.0295 194.794 53.0406 194.794 56.0074C194.794 57.203 194.129 57.9114 192.932 57.9114H191.691C190.494 57.9114 189.829 57.2472 189.829 56.0074V35.9041C189.829 34.7085 190.494 34.0443 191.691 34.0443H192.932C194.129 34.0443 194.794 34.7085 194.794 35.9041C194.794 38.9594 194.794 42.059 194.794 45.1144Z" fill="url(#paint5_linear_8094_3142)"/>
<defs>
<linearGradient id="paint0_linear_8094_3142" x1="115.82" y1="18.988" x2="115.82" y2="0.00564362" gradientUnits="userSpaceOnUse">
<stop stop-color="#005AA5"/>
<stop offset="1" stop-color="#1E91CD"/>
</linearGradient>
<linearGradient id="paint1_linear_8094_3142" x1="144.778" y1="20.9912" x2="144.778" y2="7.00416" gradientUnits="userSpaceOnUse">
<stop stop-color="#005AA5"/>
<stop offset="1" stop-color="#1E91CD"/>
</linearGradient>
<linearGradient id="paint2_linear_8094_3142" x1="87.8639" y1="20.9912" x2="87.8639" y2="7.00416" gradientUnits="userSpaceOnUse">
<stop stop-color="#005AA5"/>
<stop offset="1" stop-color="#1E91CD"/>
</linearGradient>
<linearGradient id="paint3_linear_8094_3142" x1="166.742" y1="25.9943" x2="166.742" y2="17.0027" gradientUnits="userSpaceOnUse">
<stop stop-color="#005AA5"/>
<stop offset="1" stop-color="#1E91CD"/>
</linearGradient>
<linearGradient id="paint4_linear_8094_3142" x1="65.8983" y1="25.9943" x2="65.8983" y2="17.0027" gradientUnits="userSpaceOnUse">
<stop stop-color="#005AA5"/>
<stop offset="1" stop-color="#1E91CD"/>
</linearGradient>
<linearGradient id="paint5_linear_8094_3142" x1="113.819" y1="57.9849" x2="113.819" y2="34.0071" gradientUnits="userSpaceOnUse">
<stop stop-color="#005AA5"/>
<stop offset="1" stop-color="#1E91CD"/>
</linearGradient>
</defs>
</svg>
