<svg width="59" height="60" viewBox="0 0 59 60" fill="none" xmlns="http://www.w3.org/2000/svg">
<path fill-rule="evenodd" clip-rule="evenodd" d="M22.5623 0.59212C8.00539 4.31525 -1.52914 18.2505 0.20256 33.2709C1.25406 42.3895 5.85066 49.9925 13.3522 55.0205C30.192 66.3081 52.8562 57.5146 58.1999 37.6194C59.2697 33.6366 59.2662 26.2825 58.1923 22.325C55.4488 12.2113 48.1989 4.4529 38.4875 1.23726C35.5492 0.264334 34.698 0.140241 30.2134 0.0331809C26.1115 -0.0648419 24.7384 0.0352665 22.5623 0.59212ZM24.8215 1.78508C19.1103 2.88488 14.6074 5.22283 10.4418 9.25115C2.11561 17.3033 -0.525229 29.162 3.54287 40.2285C8.60283 53.9923 24.5753 61.6065 38.3862 56.8388C43.0831 55.2176 45.3033 53.8328 48.8588 50.3068C58.354 40.8899 60.1612 26.7927 53.3768 15.0661C52.7 13.8968 50.6636 11.449 48.8509 9.62656C46.0739 6.83465 45.0396 6.05394 42.2798 4.66667C36.6428 1.83305 30.1431 0.760358 24.8215 1.78508ZM16.4233 15.7572V19.8394L15.5869 19.0472C14.7612 18.2647 14.01 18.3113 14.01 19.1449C14.01 19.669 16.8201 22.4988 17.3403 22.4988C17.7878 22.4988 20.5603 19.53 20.5603 19.051C20.5603 18.3256 19.7805 18.2922 19.0475 18.9864C18.6224 19.3889 18.2073 19.7181 18.125 19.7181C18.0422 19.7184 17.9746 17.9585 17.9746 15.8076C17.9746 12.017 17.9509 11.8936 17.1989 11.7858C16.4322 11.6764 16.4233 11.7226 16.4233 15.7572ZM40.7977 11.943C40.665 12.0771 40.5561 13.9086 40.5561 16.013V19.8394L39.7197 19.0472C38.8943 18.2654 38.1428 18.3113 38.1428 19.1435C38.1428 19.3781 38.8854 20.3076 39.7928 21.2089L41.4428 22.8475L43.0679 21.1839C43.9619 20.269 44.6931 19.3301 44.6931 19.0979C44.6931 18.4497 43.7378 18.5957 42.98 19.3597C42.305 20.0403 42.3009 20.0222 42.2043 15.9748C42.1247 12.6284 42.0126 11.887 41.5734 11.8025C41.2797 11.7455 40.9308 11.8088 40.7977 11.943ZM28.1201 14.591C24.8735 19.1004 22.0652 24.6036 21.7221 27.1278C20.9171 33.0495 27.1503 37.8554 32.4543 35.4021C36.5883 33.4903 38.1897 28.8384 36.3042 24.2177C35.0979 21.261 30.1017 13.1137 29.495 13.1137C29.3236 13.1137 28.7048 13.7786 28.1201 14.591ZM27.5116 18.4417C24.5243 23.3532 23.5035 25.8497 23.4966 28.2613C23.4918 30.0463 23.6407 30.5725 24.4588 31.6536C26.8803 34.8546 31.1132 35.1779 33.7251 32.3613C35.4647 30.4853 35.8084 28.3173 34.8321 25.3787C34.3539 23.9396 29.7066 15.5469 29.3877 15.5469C29.3243 15.5469 28.48 16.8497 27.5116 18.4417ZM8.55595 27.7997C8.6649 28.5707 8.74764 28.5832 14.4409 28.6771L20.2156 28.7723V27.895V27.0176H14.3306H8.44599L8.55595 27.7997ZM24.6974 28.2676C24.6974 28.9548 24.958 29.9621 25.2765 30.5058C25.9654 31.6814 27.827 32.7766 28.6169 32.4708C29.516 32.1232 29.2678 31.2879 28.1484 30.8944C27.1968 30.56 26.5442 29.594 25.9399 27.6259C25.8371 27.2912 25.5158 27.0176 25.2252 27.0176C24.8491 27.0176 24.6974 27.3767 24.6974 28.2676ZM38.5496 27.7997C38.6585 28.5707 38.7413 28.5832 44.4346 28.6771C47.8859 28.7341 50.2092 28.6406 50.2092 28.4449C50.2092 28.2648 50.3033 27.8699 50.4185 27.5675C50.6043 27.0788 49.9489 27.0176 44.5335 27.0176H38.4396L38.5496 27.7997ZM8.59387 32.1225C8.49837 32.3738 8.51837 32.8375 8.63869 33.1534C8.83313 33.6644 9.41234 33.7047 13.8983 33.5215L18.9393 33.3158L21.0843 35.554C23.9679 38.5635 25.714 39.3497 29.5239 39.3539C32.1327 39.357 32.6574 39.2441 34.305 38.324C35.323 37.7556 36.9668 36.3868 37.958 35.2825L39.7604 33.2744H44.9848H50.2092V32.4054V31.5364H44.3484C40.907 31.5364 38.4875 31.6716 38.4875 31.8642C38.4875 32.7148 34.5935 36.3614 32.9015 37.0952C29.174 38.7119 24.8466 37.4067 21.6676 33.7072L19.9136 31.6654H14.3406C10.0549 31.6654 8.72764 31.771 8.59387 32.1225ZM18.147 40.4002C18.147 42.4076 18.0429 44.05 17.9157 44.05C17.7885 44.05 17.4062 43.7962 17.0666 43.4865C16.4581 42.9314 15.389 43.0339 15.389 43.6471C15.389 44.0684 18.3804 46.8308 18.8365 46.8308C19.262 46.8308 22.2841 44.0823 22.2841 43.6954C22.2841 43.1334 21.1233 43.0148 20.5696 43.5202C20.25 43.8115 19.9236 44.0503 19.8436 44.0503C19.7639 44.0507 19.7512 42.4083 19.816 40.4005L19.9335 36.7504H19.0403H18.147V40.4002ZM39.5187 38.5753C39.5173 39.5792 39.4173 41.2275 39.2967 42.2386L39.0777 44.0771L38.261 43.3033C37.657 42.7315 37.3433 42.6314 37.0572 42.9199C36.7714 43.2081 36.9613 43.6798 37.7849 44.7285C39.6559 47.1106 40.0317 47.1568 41.9599 45.2419C42.8773 44.3308 43.5482 43.4552 43.4506 43.2964C43.161 42.824 42.2067 42.9662 41.5314 43.5825C40.9243 44.1362 40.9008 44.0201 40.9008 40.4541C40.9008 36.9822 40.8577 36.7504 40.2113 36.7504C39.6097 36.7504 39.5215 36.9833 39.5187 38.5753ZM28.8344 43.181C28.8344 45.2561 28.8058 45.2975 27.8039 44.667C27.2703 44.3308 27.0386 44.3312 26.7042 44.6684C26.3691 45.0062 26.5983 45.4223 27.8015 46.6584C28.6383 47.518 29.4784 48.2212 29.6687 48.2212C30.0566 48.2212 32.9715 45.4292 32.9715 45.0577C32.9715 44.4574 31.8969 44.5032 31.0974 45.1373L30.2134 45.8384V43.5539C30.2134 41.501 30.1434 41.2692 29.5239 41.2692C28.9178 41.2692 28.8344 41.501 28.8344 43.181Z" fill="#F0D093"/>
</svg>
