<svg width="24" height="24" viewBox="0 0 24 24" fill="none" xmlns="http://www.w3.org/2000/svg">
<path fill-rule="evenodd" clip-rule="evenodd" d="M12 22.8C17.9647 22.8 22.8 17.9647 22.8 12C22.8 6.03532 17.9647 1.2 12 1.2C6.03532 1.2 1.2 6.03532 1.2 12C1.2 17.9647 6.03532 22.8 12 22.8ZM12 24C18.6274 24 24 18.6274 24 12C24 5.37258 18.6274 0 12 0C5.37258 0 0 5.37258 0 12C0 18.6274 5.37258 24 12 24Z" fill="#444C55"/>
<path d="M5.19363 16V9.617H10.6146V16H9.11963V10.8H6.68863V16H5.19363ZM12.3625 16.156C12.1112 16.156 11.8859 16.1127 11.6865 16.026L11.9465 14.674C11.9899 14.6827 12.0375 14.6957 12.0895 14.713C12.1415 14.7217 12.1979 14.726 12.2585 14.726C12.4579 14.726 12.6225 14.635 12.7525 14.453C12.8825 14.271 12.9735 13.9807 13.0255 13.582C13.1122 12.9147 13.1902 12.2517 13.2595 11.593C13.3375 10.9343 13.4112 10.2757 13.4805 9.617H17.8095V16H16.3145V10.8H14.6765C14.6159 11.3287 14.5509 11.8617 14.4815 12.399C14.4209 12.9277 14.3559 13.4563 14.2865 13.985C14.1912 14.6957 13.9832 15.2373 13.6625 15.61C13.3419 15.974 12.9085 16.156 12.3625 16.156Z" fill="#36434D"/>
</svg>
