<svg width="16" height="19" viewBox="0 0 16 19" fill="none" xmlns="http://www.w3.org/2000/svg">
<path d="M14.2841 7.57533C14.2841 12.7259 7.61861 17.1407 7.61861 17.1407C7.61861 17.1407 0.953125 12.7259 0.953125 7.57533C0.953125 5.81901 1.65538 4.13463 2.9054 2.89272C4.15542 1.65082 5.85081 0.953125 7.61861 0.953125C9.38641 0.953125 11.0818 1.65082 12.3318 2.89272C13.5818 4.13463 14.2841 5.81901 14.2841 7.57533Z" stroke="#005AA5" stroke-width="1.90442" stroke-linecap="round" stroke-linejoin="round"/>
<path d="M7.61861 9.78273C8.84569 9.78273 9.84044 8.79444 9.84044 7.57533C9.84044 6.35622 8.84569 5.36793 7.61861 5.36793C6.39153 5.36793 5.39678 6.35622 5.39678 7.57533C5.39678 8.79444 6.39153 9.78273 7.61861 9.78273Z" stroke="#005AA5" stroke-width="1.90442" stroke-linecap="round" stroke-linejoin="round"/>
</svg>
