<svg width="24" height="24" viewBox="0 0 24 24" fill="none" xmlns="http://www.w3.org/2000/svg">
<path fill-rule="evenodd" clip-rule="evenodd" d="M12 22.8C17.9647 22.8 22.8 17.9647 22.8 12C22.8 6.03532 17.9647 1.2 12 1.2C6.03532 1.2 1.2 6.03532 1.2 12C1.2 17.9647 6.03532 22.8 12 22.8ZM12 24C18.6274 24 24 18.6274 24 12C24 5.37258 18.6274 0 12 0C5.37258 0 0 5.37258 0 12C0 18.6274 5.37258 24 12 24Z" fill="#444C55"/>
<path d="M5.19414 15.6H3.6V8.4H7.10261C7.88845 8.4 8.50216 8.62309 8.94373 9.06927C9.39278 9.50825 9.6173 10.0588 9.6173 10.7208C9.6173 11.3757 9.39278 11.9262 8.94373 12.3724C8.49467 12.8186 7.88097 13.0417 7.10261 13.0417H5.19414V15.6ZM6.88931 11.6924C7.21113 11.6924 7.47308 11.606 7.67515 11.4333C7.88471 11.2534 7.98949 11.0159 7.98949 10.7208C7.98949 10.4258 7.88471 10.1919 7.67515 10.0192C7.47308 9.83928 7.21113 9.74932 6.88931 9.74932H5.19414V11.6924H6.88931Z" fill="#444C55"/>
<path d="M12.5887 13.5706H9.89437V12.4048H12.5887V13.5706Z" fill="#444C55"/>
<path d="M20.4 15.6H18.7946V12.5775H15.2583V15.6H13.6642V8.4H15.2583V11.2282H18.7946V8.4H20.4V15.6Z" fill="#444C55"/>
</svg>
