<svg width="17" height="17" viewBox="0 0 17 17" fill="none" xmlns="http://www.w3.org/2000/svg">
<path d="M7.7093 2.5814H2.49096C2.09553 2.5814 1.7163 2.73848 1.43669 3.01809C1.15708 3.2977 1 3.67693 1 4.07235V14.509C1 14.9045 1.15708 15.2837 1.43669 15.5633C1.7163 15.8429 2.09553 16 2.49096 16H12.9276C13.3231 16 13.7023 15.8429 13.9819 15.5633C14.2615 15.2837 14.4186 14.9045 14.4186 14.509V9.2907M13.3004 1.46318C13.597 1.16661 13.9992 1 14.4186 1C14.838 1 15.2402 1.16661 15.5368 1.46318C15.8334 1.75975 16 2.16198 16 2.5814C16 3.00081 15.8334 3.40304 15.5368 3.69961L8.45478 10.7817L5.47287 11.5271L6.21835 8.54522L13.3004 1.46318Z" stroke="#4A99D4" stroke-width="2" stroke-linecap="round" stroke-linejoin="round"/>
</svg>
