<svg width="60" height="60" viewBox="0 0 60 60" fill="none" xmlns="http://www.w3.org/2000/svg">
<path fill-rule="evenodd" clip-rule="evenodd" d="M26.4679 0.165979C13.7479 1.74996 3.52563 11.0139 0.542101 23.661C-0.172656 26.6919 -0.182299 33.1856 0.523195 36.5376C2.43366 45.6124 8.81274 53.4819 17.5162 57.5004C21.6965 59.4306 24.6212 60.0163 29.988 59.9997C33.886 59.9871 35.1365 59.8308 37.8829 59.0118C48.7884 55.7598 56.5711 47.7425 59.3034 36.9456C60.4235 32.5199 60.166 25.5164 58.7242 21.2065C55.9452 12.8971 50.3506 6.5593 42.5853 2.92332C37.7317 0.650652 31.3463 -0.441622 26.4679 0.165979ZM25.9121 1.77847C15.1874 3.26952 5.91669 11.2798 2.56967 21.947C1.54515 25.2116 1.17459 31.6838 1.8045 35.3065C3.65976 45.9785 12.5077 55.3188 23.2332 57.9277C26.8736 58.8133 33.0882 58.7234 36.8428 57.7307C41.9832 56.3718 45.6378 54.2706 49.4791 50.4658C54.724 45.2706 57.4207 39.827 58.1084 33.0475C58.9795 24.4574 56.2713 16.6552 50.2268 10.3438C43.8885 3.72531 34.8393 0.537721 25.9121 1.77847ZM27.5799 13.5236C26.5891 14.8984 25.3085 16.9144 24.7338 18.0045C22.1375 22.9279 24.3748 27.9571 29.3243 28.323C31.7139 28.4992 33.3309 27.7494 34.9638 25.7078C35.9631 24.4582 36.0995 24.0075 36.0851 22.0052C36.0728 20.3697 35.825 19.2545 35.2077 18.0593C33.8078 15.3493 30.5897 11.0369 29.9624 11.0302C29.643 11.0269 28.5707 12.1488 27.5799 13.5236ZM27.8289 15.844C25.5308 19.3604 25.171 20.2175 25.171 22.1748C25.171 24.1971 25.9936 25.6134 27.6147 26.382C30.1514 27.585 32.9014 26.5653 34.2843 23.9094C34.9242 22.6805 34.9219 21.6249 34.275 19.814C33.7737 18.4099 30.3466 12.8893 29.9709 12.8804C29.8594 12.8778 28.8956 14.2115 27.8289 15.844ZM41.4052 14.4492C41.3025 15.5122 41.1462 15.6663 40.0627 15.7703C38.4283 15.9269 38.5346 17.1281 40.1842 17.1451C41.1547 17.1551 41.3033 17.3014 41.4052 18.3485C41.5523 19.8576 42.4193 19.9113 42.7157 18.4295C42.8654 17.6824 43.1593 17.3188 43.6143 17.3188C44.2957 17.3188 45.1798 16.663 45.1798 16.1572C45.1798 16.0073 44.6377 15.8325 43.9756 15.7685C42.9166 15.6666 42.7573 15.5074 42.6554 14.4492C42.5861 13.732 42.3334 13.2459 42.0303 13.2459C41.7272 13.2459 41.4745 13.732 41.4052 14.4492ZM16.6488 19.517C16.6488 20.4723 16.5032 20.6182 15.4475 20.7204C13.7327 20.8859 13.5685 22.0396 15.237 22.1996C16.2645 22.298 16.4646 22.4676 16.4706 23.243C16.4758 23.9165 16.6773 24.1686 17.2116 24.1686C17.7474 24.1686 17.9456 23.9187 17.9456 23.243C17.9456 22.4658 18.1424 22.2984 19.1721 22.1996C20.8406 22.0396 20.6764 20.8859 18.9616 20.7204C17.906 20.6182 17.7604 20.4723 17.7604 19.517C17.7604 18.7972 17.5725 18.4295 17.2046 18.4295C16.8366 18.4295 16.6488 18.7972 16.6488 19.517ZM30.6027 22.1162C30.4586 22.8364 29.9987 23.4099 29.2595 23.7921C27.9085 24.49 27.764 25.4645 29.0112 25.4645C30.5838 25.4645 32.751 22.5643 32.0389 21.4128C31.5738 20.6607 30.8198 21.0303 30.6027 22.1162ZM7.01493 31.759C7.01493 32.4906 7.28061 32.5003 29.4322 32.5551C41.7616 32.5858 52.058 32.6273 52.3125 32.6476C52.5675 32.668 52.829 32.3099 52.8943 31.8516L53.0125 31.0185H30.0139C7.26206 31.0185 7.01493 31.0262 7.01493 31.759ZM14.1273 35.8859C12.607 36.5839 12.4462 36.5898 10.7084 36.0129C8.65603 35.3317 7.2002 35.3931 7.2002 36.161C7.2002 37.3389 13.4036 38.1201 15.1366 37.1608C15.9107 36.7324 16.2393 36.7583 17.5451 37.3511C19.4011 38.193 19.8772 38.2064 22.0308 37.4758C23.5992 36.9438 23.866 36.949 25.4193 37.5418C26.8399 38.0838 27.3598 38.1171 28.72 37.7535C29.8253 37.4584 30.6382 37.4373 31.297 37.6876C32.6995 38.2208 34.3328 38.1364 35.7657 37.457C36.9225 36.9086 37.1437 36.9086 38.5154 37.457C40.3844 38.2042 41.5767 38.2112 42.9862 37.4829C43.99 36.9641 44.2746 36.9697 46.1021 37.5455C47.8828 38.1064 48.3534 38.1216 50.2046 37.6776C52.3174 37.1715 53.0347 36.498 52.2729 35.7367C51.965 35.429 51.5148 35.4838 50.5436 35.9467C48.8988 36.7305 48.1341 36.7309 45.932 35.9493C44.2724 35.3602 44.1 35.362 42.7854 35.9855C41.3374 36.672 40.2658 36.6268 38.2323 35.793C37.2271 35.3809 36.8291 35.3816 35.8238 35.7971C33.9045 36.5905 32.3938 36.6857 31.2333 36.0859C30.3118 35.6101 30.0254 35.6031 29.2391 36.0381C27.9534 36.7494 26.8581 36.692 25.1562 35.8245L23.6889 35.0762L22.2216 35.8245C20.3834 36.7616 19.5864 36.7627 17.7604 35.8319C16.0444 34.957 16.1545 34.9555 14.1273 35.8859ZM11.8319 42.1263C11.8319 42.7025 12.079 42.8669 12.9435 42.8669C13.8079 42.8669 14.0551 42.7025 14.0551 42.1263C14.0551 41.5502 13.8079 41.3858 12.9435 41.3858C12.079 41.3858 11.8319 41.5502 11.8319 42.1263ZM20.4208 42.2152C20.5635 43.2131 21.4094 43.4456 22.3631 42.7488C23.2865 42.0741 22.8092 41.3858 21.4179 41.3858C20.4745 41.3858 20.3208 41.5136 20.4208 42.2152ZM28.8968 41.9168C28.2898 42.6473 28.7096 43.2371 29.836 43.2371C30.619 43.2371 31.4745 42.3466 31.0529 41.9712C30.4971 41.4769 29.2877 41.4462 28.8968 41.9168ZM37.1841 41.8842C37.0622 42.2015 37.0703 42.6358 37.2022 42.8491C37.5702 43.4441 39.2465 43.3097 39.494 42.6658C39.7648 41.9605 39.6859 41.8794 38.4202 41.5617C37.6758 41.3751 37.3464 41.461 37.1841 41.8842ZM45.6748 41.966C45.3484 42.8165 46.0428 43.3138 47.164 43.0324C47.7917 42.875 48.1441 42.5347 48.1441 42.0864C48.1441 41.1855 46.0143 41.0818 45.6748 41.966ZM16.3709 46.8079C15.5668 47.1441 15.8685 48.0265 16.8737 48.2786C17.8434 48.5219 18.623 47.9224 18.3736 47.1249C18.2425 46.7043 17.0649 46.5177 16.3709 46.8079ZM24.8791 46.852C24.6323 46.9342 24.43 47.3208 24.43 47.711C24.43 48.2472 24.6927 48.4208 25.5019 48.4208C26.3897 48.4208 27.0237 47.8861 27.0237 47.1378C27.0237 46.9279 25.3293 46.702 24.8791 46.852ZM33.3594 46.9986C32.6462 47.2623 32.5765 47.413 32.9552 47.8691C33.7911 48.8755 35.5459 48.3801 35.5459 47.1378C35.5459 46.8139 34.1072 46.722 33.3594 46.9986ZM41.513 46.9079C40.7275 47.4052 41.3233 48.4208 42.4008 48.4208C43.4783 48.4208 44.0741 47.4052 43.2886 46.9079C43.004 46.728 42.6046 46.581 42.4008 46.581C42.197 46.581 41.7976 46.728 41.513 46.9079Z" fill="#F0D093"/>
</svg>
